<svg width="115" height="17" viewBox="0 0 115 17" fill="none" xmlns="http://www.w3.org/2000/svg">
<path d="M4.41916 2.57296C4.35736 2.53866 4.2475 2.51122 4.18227 2.51122C4.11704 2.51122 4.01061 2.53866 3.94538 2.57296C3.88015 2.60383 3.78745 2.68615 3.73939 2.75131C3.67759 2.83706 3.64669 2.9331 3.62952 3.09431C3.61922 3.21779 3.61236 3.49562 3.61579 3.71171C3.61922 3.98954 3.63982 4.13702 3.67759 4.20905C3.70505 4.26736 3.76685 4.34625 3.81148 4.38741C3.85611 4.42857 3.93508 4.48002 3.98657 4.49717C4.03807 4.51775 4.1342 4.5349 4.19943 4.5349C4.26466 4.5349 4.36422 4.51432 4.41572 4.48688C4.46722 4.46287 4.55992 4.38398 4.62171 4.31538C4.68351 4.24678 4.74187 4.14045 4.75217 4.08214C4.76247 4.02041 4.76591 3.72886 4.75904 3.43045L4.74874 2.89537C4.58738 2.68957 4.48439 2.60383 4.41916 2.57296Z" fill="white"/>
<path d="M8.22655 2.54895C8.17506 2.52837 8.08236 2.51122 8.02056 2.51465C7.95877 2.51465 7.88324 2.52494 7.85577 2.53866C7.82831 2.54895 7.75278 2.59697 7.68755 2.64499C7.62231 2.69644 7.54335 2.7959 7.50902 2.87136C7.45752 2.98112 7.44722 3.10117 7.44379 3.47161C7.44379 3.78031 7.46096 3.99182 7.49529 4.10615C7.52275 4.20219 7.58798 4.31881 7.63948 4.37026C7.69441 4.42171 7.78024 4.48002 7.83174 4.49717C7.88324 4.51775 7.97937 4.5349 8.0446 4.5349C8.10983 4.5349 8.20939 4.51432 8.26089 4.48688C8.31238 4.45944 8.39478 4.39427 8.44628 4.33939C8.49778 4.28794 8.55614 4.20219 8.57674 4.15074C8.59391 4.09586 8.61107 3.81804 8.61107 3.52306C8.61107 3.14919 8.59734 2.95711 8.56301 2.88165C8.53897 2.81991 8.47374 2.72731 8.41881 2.67586C8.36388 2.62441 8.27805 2.56953 8.22655 2.54895Z" fill="white"/>
<path fill-rule="evenodd" clip-rule="evenodd" d="M2.90512 3.68084C3.05961 3.67741 3.19351 3.69456 3.20381 3.71171C3.21411 3.73229 3.22784 3.84205 3.23471 3.9621C3.24157 4.07871 3.26217 4.23992 3.2862 4.32224C3.3068 4.40113 3.37547 4.53147 3.43726 4.61379C3.49906 4.69268 3.61922 4.80244 3.70505 4.85389C3.81492 4.92249 3.91791 4.95679 4.07927 4.97051C4.24406 4.98423 4.34706 4.97394 4.47409 4.93278C4.57022 4.90191 4.70068 4.82988 4.76591 4.77843C4.83114 4.72355 4.9307 4.59664 4.98906 4.49717C5.06803 4.34968 5.09206 4.25364 5.10922 4.02727C5.11952 3.86949 5.14356 3.72543 5.16072 3.70828C5.18132 3.69113 5.62764 3.68427 7.11764 3.69456L7.12794 3.81461C7.13137 3.87978 7.15197 4.03412 7.17257 4.1576C7.19317 4.28108 7.24123 4.44572 7.28243 4.52804C7.32363 4.61036 7.41632 4.72355 7.48842 4.77843C7.55708 4.83331 7.68068 4.90191 7.76308 4.92935C7.84204 4.96022 7.9931 4.9808 8.09609 4.9808C8.21969 4.9808 8.34328 4.95336 8.45658 4.90191C8.55271 4.85732 8.67974 4.76471 8.74153 4.69611C8.80333 4.62751 8.87543 4.51089 8.90633 4.44229C8.93723 4.37026 8.97156 4.18161 8.98529 4.02727C8.99559 3.86949 9.02305 3.72543 9.04022 3.70828C9.06082 3.6877 9.22904 3.68084 9.41787 3.6877C9.67536 3.69799 9.80239 3.71857 9.92598 3.77688C10.0152 3.81461 10.1663 3.92094 10.2624 4.01355C10.3586 4.10272 10.4787 4.25364 10.6195 4.51775V6.97018C10.6195 9.2374 10.6161 9.44319 10.5543 9.71416C10.5199 9.87537 10.4547 10.1223 10.4066 10.263C10.3586 10.4036 10.2521 10.6608 10.1732 10.8289C10.0908 11.0004 9.94315 11.2611 9.84358 11.412C9.74059 11.5663 9.50713 11.8442 9.30114 12.0465C9.09858 12.2455 8.8205 12.4822 8.67974 12.5782C8.53897 12.6708 8.29179 12.8114 8.13043 12.8938C7.96907 12.9726 7.69098 13.0858 7.51245 13.1441C7.33393 13.2024 7.03867 13.2745 6.86015 13.3053C6.61639 13.3431 6.3898 13.3534 5.96752 13.3396C5.51091 13.3225 5.33581 13.3053 5.06803 13.2333C4.88263 13.1853 4.61141 13.0961 4.46722 13.0378C4.31959 12.9795 4.0827 12.8697 3.94194 12.7909C3.80118 12.712 3.56773 12.561 3.42697 12.4547C3.28621 12.3484 3.04588 12.1323 2.89482 11.9745C2.74033 11.8167 2.53434 11.5629 2.43134 11.412C2.33178 11.2611 2.17385 10.9833 2.08802 10.7946C1.99876 10.606 1.89577 10.3521 1.85457 10.2287C1.8168 10.1052 1.75501 9.87537 1.72067 9.71416C1.66574 9.44662 1.65888 9.21339 1.65888 4.44915L1.73441 4.31195C1.7756 4.23649 1.85113 4.12673 1.90607 4.06843C1.95756 4.01355 2.07086 3.92094 2.15669 3.86263C2.23908 3.80775 2.37984 3.74601 2.46567 3.722C2.5515 3.70142 2.74719 3.68084 2.90512 3.68084ZM2.54807 9.57696C2.48971 9.31629 2.48284 9.11735 2.48284 5.90003L2.56524 5.83486C2.6442 5.77312 2.75063 5.76969 6.13575 5.76969C9.5449 5.76626 9.62729 5.76969 9.79552 5.90003L9.80582 7.54299C9.81612 8.89783 9.80582 9.23397 9.76462 9.47406C9.73372 9.63527 9.67536 9.87537 9.63073 10.0057C9.5861 10.1395 9.50027 10.3453 9.44534 10.4688C9.38697 10.5922 9.26338 10.8083 9.16725 10.949C9.07455 11.0896 8.85139 11.3468 8.67287 11.5149C8.48748 11.6933 8.23342 11.8922 8.0755 11.9848C7.92787 12.074 7.68755 12.1906 7.54679 12.2489C7.40602 12.3038 7.15884 12.3861 6.99748 12.4238C6.82582 12.4684 6.54086 12.5062 6.29367 12.5165C5.95722 12.5336 5.81303 12.5233 5.48688 12.4581C5.27058 12.417 4.95473 12.3312 4.78307 12.2661C4.61485 12.1975 4.35393 12.074 4.20287 11.9848C4.05181 11.8956 3.79775 11.7001 3.63639 11.5458C3.47503 11.3914 3.26217 11.1548 3.16604 11.0141C3.06991 10.8735 2.94289 10.6677 2.88796 10.5545C2.82959 10.4413 2.74376 10.2424 2.69913 10.1086C2.65107 9.97827 2.5824 9.73817 2.54807 9.57696ZM6.19754 6.53458C6.69879 6.54144 6.71939 6.54487 6.80865 6.62719C6.85672 6.67521 6.91165 6.76781 6.92881 6.83298C6.94941 6.89815 6.96314 7.17941 6.96314 7.96488L7.55708 7.97517C8.10639 7.98203 8.15446 7.98889 8.26089 8.06091C8.33413 8.11122 8.37762 8.1741 8.39135 8.24956C8.40165 8.30787 8.41195 8.60285 8.42225 9.44663L8.19909 9.64556H6.94598V10.2218C6.94598 10.5374 6.93568 10.8358 6.92195 10.8906C6.90821 10.9421 6.85328 11.0107 6.80178 11.045C6.72282 11.0964 6.62326 11.1033 5.52464 11.1033L5.33238 10.9147L5.31522 9.64556H4.69724C4.10674 9.64556 4.07584 9.64213 3.99001 9.5701C3.91791 9.50837 3.89388 9.44663 3.87328 9.28542C3.85955 9.17223 3.85611 8.8944 3.86985 8.66802C3.88701 8.35932 3.90761 8.22898 3.95224 8.16039C3.98314 8.10894 4.06554 8.04377 4.13077 8.01633C4.22003 7.9786 4.38826 7.96488 5.31522 7.96488L5.32551 7.37149C5.33238 6.85699 5.34268 6.76782 5.39761 6.6855C5.43194 6.63748 5.51091 6.57917 5.56927 6.56202C5.62764 6.54144 5.90916 6.53115 6.19754 6.53458Z" fill="white"/>
<path fill-rule="evenodd" clip-rule="evenodd" d="M8.14073 0.0107648C8.20252 0.0210547 8.28835 0.0519245 8.33642 0.0759343C8.38448 0.0999441 8.45658 0.151394 8.50121 0.192553C8.57331 0.257723 8.6248 0.264583 9.01619 0.268013C9.29771 0.268013 9.53117 0.292023 9.67536 0.326322C9.79895 0.357192 9.98434 0.415502 10.0873 0.456661C10.1903 0.494391 10.3551 0.566421 10.4478 0.61444C10.544 0.66246 10.6881 0.748209 10.774 0.806519C10.8598 0.864829 11.028 0.995167 11.1482 1.1015C11.2684 1.20783 11.4606 1.41705 11.5739 1.56797C11.6872 1.71889 11.8383 1.96242 11.9104 2.10991C11.9859 2.25397 12.0855 2.50779 12.2331 2.97426L12.2434 5.88974C12.2537 7.98203 12.2434 8.90812 12.2159 9.16537C12.1919 9.36431 12.1301 9.69358 12.0786 9.90281C12.0271 10.112 11.9344 10.4207 11.8726 10.5888C11.8108 10.7569 11.6769 11.0621 11.5773 11.2679C11.4743 11.4703 11.3096 11.7619 11.21 11.9196C11.107 12.074 10.9319 12.3175 10.8186 12.4581C10.7053 12.5988 10.4341 12.8869 10.2212 13.0927C9.98778 13.3191 9.67536 13.5729 9.4522 13.7238C9.24278 13.861 8.92692 14.0462 8.7484 14.132C8.56987 14.2177 8.29179 14.3309 8.13043 14.3858C7.96907 14.4407 7.68411 14.523 7.49529 14.5676C7.30646 14.6122 7.00091 14.6636 6.81552 14.6773C6.63356 14.6911 6.4825 14.7219 6.4825 14.7391C6.4825 14.7562 6.50996 14.8797 6.5443 15.0135C6.57863 15.1472 6.65416 15.3359 6.70909 15.4388C6.76402 15.5383 6.86358 15.6858 6.92881 15.7612C7.00778 15.8504 7.15197 15.9464 7.63262 16.1797H8.13043C8.54928 16.1797 8.66944 16.1659 8.88573 16.1008C9.02649 16.0562 9.32861 15.9293 9.5552 15.8161C9.78179 15.7029 10.1011 15.5177 10.2624 15.3976C10.4272 15.281 10.6229 15.1301 10.7019 15.0649C10.8392 14.9483 10.8426 14.9414 10.8083 14.8077C10.7911 14.7322 10.774 14.5847 10.774 14.4818C10.774 14.3789 10.7946 14.2177 10.8186 14.1217C10.8461 14.0291 10.9113 13.8679 10.9662 13.765C11.0212 13.6621 11.1516 13.494 11.2581 13.3877C11.3645 13.2813 11.5258 13.1544 11.6185 13.103C11.7112 13.0515 11.8795 12.9864 11.9928 12.9589C12.1061 12.9281 12.2914 12.904 12.4047 12.904C12.518 12.904 12.7 12.928 12.8099 12.9555C12.9163 12.9829 13.0776 13.0447 13.1703 13.0893C13.2596 13.1338 13.4141 13.247 13.5171 13.3362C13.6201 13.4288 13.7437 13.566 13.7952 13.6415C13.8467 13.7169 13.9222 13.8713 13.9668 13.9845C14.0321 14.1491 14.0458 14.2554 14.0458 14.5161C14.0424 14.7459 14.0252 14.8969 13.9771 15.0306C13.9394 15.1335 13.8501 15.3119 13.7746 15.4216C13.7025 15.5348 13.5789 15.6789 13.5034 15.7441C13.4278 15.8092 13.2596 15.9121 13.1257 15.9773C12.9918 16.039 12.779 16.1076 12.6451 16.1282C12.47 16.1557 12.3395 16.1557 12.1644 16.1282C12.034 16.1076 11.8314 16.0459 11.7181 15.9876C11.6048 15.9327 11.4606 15.8401 11.4023 15.7852C11.3405 15.7269 11.2821 15.6823 11.2718 15.6823C11.2615 15.6823 11.1722 15.7475 11.0761 15.8298C10.9765 15.9121 10.8117 16.0356 10.7156 16.1042C10.6161 16.1728 10.3826 16.3134 10.2006 16.4163C10.0152 16.5158 9.72686 16.6564 9.5552 16.7216C9.38354 16.7902 9.11575 16.8794 8.95439 16.9205C8.71407 16.9857 8.56987 16.9994 8.14759 16.9994C7.70128 17.0029 7.59828 16.9926 7.37513 16.9205C7.23437 16.8794 7.01121 16.7868 6.87732 16.7182C6.74685 16.6461 6.53056 16.4918 6.40353 16.3683C6.27307 16.2448 6.10828 16.0493 6.03275 15.9327C5.96065 15.8127 5.85423 15.5829 5.7993 15.4182C5.74093 15.2501 5.686 15.0203 5.64137 14.6876H5.48688C5.40105 14.6876 5.14699 14.6499 4.9204 14.6019C4.69381 14.5573 4.34706 14.4647 4.14793 14.3926C3.94881 14.324 3.65012 14.2006 3.47846 14.1148C3.31024 14.0291 3.06305 13.8884 2.92915 13.8027C2.79869 13.7204 2.56524 13.5523 2.41418 13.4357C2.26312 13.3191 2.00906 13.0858 1.8477 12.9246C1.68634 12.76 1.44945 12.4856 1.31899 12.3107C1.18853 12.1357 1.00314 11.8579 0.900143 11.6864C0.800581 11.5149 0.649521 11.2234 0.567124 11.0347C0.484728 10.8461 0.381733 10.5922 0.343968 10.4688C0.302769 10.3453 0.234105 10.0915 0.186041 9.90281C0.137976 9.71416 0.0761793 9.39174 0.0452807 9.18252C-0.00278385 8.85667 -0.00965016 8.41077 0.0109489 2.93996L0.148276 2.54552C0.223806 2.32943 0.361134 2.02073 0.457263 1.86295C0.567125 1.6743 0.742217 1.45821 0.955074 1.24213C1.15077 1.04662 1.38422 0.847679 1.53871 0.751639C1.67948 0.66589 1.9404 0.538981 2.11549 0.473811C2.28715 0.405212 2.5824 0.326322 2.76779 0.295453C2.97722 0.261153 3.19694 0.247433 3.3583 0.261153C3.58832 0.278303 3.62266 0.271443 3.68445 0.206273C3.72222 0.168544 3.81492 0.106804 3.89045 0.0725043C3.96598 0.0382046 4.10674 0.00733479 4.19943 0.00733479C4.29556 0.00733479 4.43289 0.0382046 4.50842 0.0725043C4.58395 0.103374 4.69038 0.185693 4.74531 0.250863C4.80024 0.316033 4.86547 0.418932 4.89293 0.480671C4.91697 0.538981 4.93757 0.64874 4.93757 0.72077C4.93757 0.789369 4.90667 0.909418 4.87234 0.984878C4.84144 1.06034 4.75904 1.16667 4.69381 1.22155C4.62858 1.27643 4.52558 1.3416 4.46722 1.36903C4.40542 1.39304 4.29213 1.41362 4.2166 1.41362C4.14107 1.41362 4.02091 1.38961 3.95224 1.35874C3.88015 1.33131 3.75998 1.25585 3.68445 1.19754C3.55399 1.09464 3.53339 1.09121 3.23814 1.09121C3.02185 1.09121 2.85019 1.11179 2.6648 1.16667C2.51717 1.20783 2.29401 1.29358 2.16699 1.35874C2.03653 1.42048 1.8374 1.54739 1.72411 1.64C1.60738 1.73261 1.44945 1.88696 1.37049 1.97957C1.29153 2.07561 1.1748 2.25054 1.113 2.37402C1.04777 2.4975 0.958507 2.71358 0.834912 3.11146V9.07962L0.913875 9.43976C0.958507 9.6387 1.04777 9.96112 1.11643 10.1601C1.18166 10.359 1.30869 10.6746 1.39795 10.8632C1.48722 11.0519 1.64514 11.3365 1.74814 11.4978C1.85457 11.659 2.01249 11.8819 2.10519 11.9951C2.19445 12.1083 2.34895 12.2832 2.44508 12.3827C2.5412 12.4856 2.74376 12.6639 2.89482 12.7806C3.04588 12.8972 3.28621 13.0652 3.42697 13.1544C3.56773 13.2402 3.80805 13.3671 3.95911 13.4357C4.11017 13.5043 4.35049 13.6003 4.49125 13.6449C4.63201 13.6929 4.8792 13.765 5.04056 13.8061C5.29462 13.8679 5.43194 13.8782 6.10485 13.8816C6.73999 13.8816 6.92538 13.8713 7.15197 13.8164C7.30303 13.7821 7.55022 13.7169 7.70128 13.6689C7.85234 13.6209 8.14759 13.5043 8.35358 13.4048C8.55957 13.3053 8.87886 13.127 9.05739 13.0069C9.23248 12.8835 9.51056 12.6605 9.67192 12.5096C9.82985 12.3587 10.0393 12.1357 10.1388 12.0122C10.2384 11.8888 10.4032 11.659 10.5096 11.4978C10.6126 11.3365 10.7774 11.045 10.8701 10.8461C10.9662 10.6471 11.0967 10.3316 11.1619 10.1429C11.2272 9.95426 11.3164 9.63184 11.3611 9.42262C11.4434 9.0491 11.4434 9.02821 11.4537 6.25781L11.4537 6.24989C11.464 3.55736 11.4606 3.44074 11.3954 3.11146C11.3473 2.87136 11.2787 2.67586 11.1722 2.45977C11.0864 2.2917 10.9594 2.07904 10.8873 1.99329C10.8152 1.90754 10.6881 1.7772 10.6023 1.70517C10.5165 1.63657 10.3483 1.51652 10.2247 1.44449C10.1011 1.37246 9.90881 1.27986 9.79552 1.24213C9.68222 1.20097 9.4831 1.14609 9.34921 1.11865C9.18441 1.08435 9.03335 1.07406 8.86856 1.09121C8.68317 1.10836 8.60421 1.13237 8.52524 1.20097C8.47031 1.24899 8.36045 1.31416 8.28492 1.34845C8.20939 1.38275 8.10296 1.41362 8.0446 1.41362C7.98967 1.41362 7.88324 1.39647 7.81457 1.37932C7.74248 1.35874 7.62918 1.29358 7.55708 1.23527C7.48842 1.17353 7.40602 1.06034 7.37169 0.984878C7.33736 0.909418 7.30646 0.779079 7.30646 0.69333C7.30646 0.587001 7.33736 0.487531 7.40259 0.367482C7.46096 0.268013 7.55709 0.161684 7.63605 0.110234C7.70815 0.0656444 7.82831 0.0176247 7.9004 0.00733479C7.9725 -0.00295513 8.07893 -0.00295513 8.14073 0.0107648ZM11.8486 14.0085C11.8898 13.9639 11.9722 13.9022 12.0271 13.8713C12.0855 13.8439 12.1781 13.8061 12.2331 13.7924C12.2914 13.7787 12.4047 13.7718 12.4906 13.7821C12.5764 13.7924 12.7103 13.8301 12.7927 13.8644C12.8785 13.9056 12.9781 13.9913 13.0399 14.0771C13.0982 14.1594 13.1566 14.2932 13.1772 14.3789C13.1944 14.475 13.1944 14.5882 13.1738 14.6773C13.1566 14.7597 13.1085 14.8831 13.0639 14.9517C13.0124 15.0375 12.9197 15.1164 12.7961 15.1781C12.6554 15.2501 12.5627 15.2707 12.4047 15.2707C12.2331 15.2707 12.1678 15.2536 12.0134 15.161C11.876 15.0786 11.8039 15.0066 11.7456 14.8934C11.6941 14.7871 11.6666 14.6773 11.6666 14.5401C11.6666 14.4338 11.6906 14.2863 11.7215 14.2143C11.749 14.1457 11.8074 14.0497 11.8486 14.0085Z" fill="white"/>
<path d="M20.473 1.94115C20.274 1.80003 19.7764 1.74359 18.8809 1.74359C17.8859 1.74359 17.5163 1.80003 17.3458 1.96937C17.1325 2.16692 17.1183 2.81604 17.1183 8.39C17.1325 13.6958 17.161 14.6131 17.3458 14.7965C17.5021 14.9517 17.8575 15.0082 18.5824 15.0082C19.151 15.0082 19.7196 14.9376 19.8333 14.8671C20.0181 14.7542 20.0607 14.0768 20.1176 10.6901L20.1887 6.65431L23.3159 12.8209H25.2775L28.5042 6.47087C28.5042 14.2744 28.5326 14.8812 28.7174 14.9376C28.8311 14.98 29.3997 15.0082 29.9541 15.0082C30.5227 15.0082 31.0913 14.9376 31.205 14.8671C31.3898 14.7542 31.4182 13.8793 31.4182 8.37589C31.4182 2.87249 31.3898 1.99759 31.205 1.8847C31.0913 1.81415 30.3947 1.74359 29.6698 1.74359C28.5326 1.74359 28.3336 1.78592 28.1204 2.02582C27.9783 2.19515 27.0685 3.8744 26.0877 5.76531L24.3109 9.20845C21.5533 3.73328 20.6293 2.05404 20.473 1.94115Z" fill="white"/>
<path d="M63.6711 2.18104C63.1025 1.89881 62.7187 1.82825 61.6242 1.80003C60.885 1.77181 60.089 1.80003 59.8474 1.87059C59.62 1.92703 59.1082 2.12459 58.7244 2.32215C58.3549 2.5056 57.8147 2.91482 57.5304 3.22527C57.2461 3.53572 56.9334 4.00139 56.8339 4.24128C56.7344 4.49528 56.6491 5.11619 56.6491 5.62419C56.6491 6.30153 56.7344 6.71075 56.9902 7.20465C57.175 7.58565 57.5446 8.07955 57.8005 8.30533C58.0706 8.54522 58.6676 8.86978 59.1367 9.03911C59.6057 9.20845 60.6292 9.53301 61.411 9.75879C62.1928 9.99868 62.9462 10.3091 63.0741 10.4502C63.2162 10.5914 63.33 10.93 63.33 11.2264C63.33 11.5932 63.2162 11.8896 62.9888 12.1436C62.6761 12.4964 62.5197 12.5387 61.5958 12.5952C60.7855 12.6375 60.4302 12.581 60.0037 12.3835C59.6484 12.2141 59.3641 11.9319 59.1935 11.5791C59.0372 11.2969 58.8381 11.0147 58.7529 10.9724C58.6534 10.93 58.0706 10.9865 57.4735 11.1135C56.6775 11.2687 56.3364 11.4098 56.2795 11.5791C56.2227 11.7203 56.3364 12.1436 56.5212 12.5246C56.706 12.9056 57.1324 13.4983 57.4735 13.8369C57.8005 14.1615 58.4259 14.599 58.8524 14.7965C59.5347 15.107 59.8332 15.1493 61.2688 15.1493C62.5908 15.1493 63.0599 15.0928 63.728 14.853C64.2397 14.6554 64.7798 14.3167 65.1921 13.8934C65.6043 13.4842 65.917 13.0326 66.0165 12.6798C66.1018 12.3694 66.1729 11.7061 66.1729 11.1981C66.1729 10.6901 66.1018 10.0551 66.0165 9.78701C65.9312 9.5189 65.5901 9.025 65.2631 8.68633C64.9504 8.36177 64.4245 7.96666 64.1118 7.81144C63.799 7.67032 62.8467 7.34576 61.9796 7.09175C61.1267 6.85186 60.2454 6.55553 60.018 6.41442C59.7479 6.25919 59.6057 6.03342 59.5489 5.69475C59.5015 5.36549 59.5489 5.09266 59.691 4.87628C59.819 4.70695 60.1601 4.5094 60.4586 4.42474C60.7429 4.35418 61.2404 4.28362 61.5531 4.28362C61.8659 4.28362 62.3207 4.41062 62.5908 4.56584C62.8324 4.72107 63.1594 5.07385 63.3015 5.34197C63.4437 5.6383 63.6427 5.83586 63.799 5.83586C63.927 5.83586 64.4956 5.73708 65.0357 5.62419C65.5901 5.5113 66.0592 5.32785 66.0876 5.22907C66.116 5.1444 66.0023 4.77752 65.8317 4.42474C65.6754 4.08607 65.2774 3.5075 64.9504 3.15472C64.6377 2.80193 64.0549 2.36448 63.6711 2.18104Z" fill="white"/>
<path d="M75.9099 2.22337C75.1992 1.89881 74.8296 1.81415 73.7066 1.78593C72.6263 1.74359 72.1999 1.80004 71.5744 2.02582C71.148 2.18104 70.4515 2.54793 70.025 2.84427C69.5986 3.12649 69.0158 3.64861 68.7173 4.0014C68.433 4.35418 67.9781 5.07385 67.7081 5.62419C67.2532 6.59787 67.239 6.65431 67.239 8.517C67.239 10.422 67.239 10.422 67.7507 11.4804C68.1061 12.1859 68.5609 12.8209 69.1011 13.3572C69.5986 13.8511 70.3093 14.3732 70.8637 14.6272C71.745 15.0646 71.8587 15.0787 73.4934 15.0787C75.1565 15.0787 75.2276 15.0646 76.1942 14.5848C76.7485 14.3167 77.5161 13.7805 77.9141 13.3854C78.3121 13.0044 78.8381 12.2706 79.0939 11.7626C79.3498 11.2546 79.5346 10.7184 79.5062 10.5631C79.4635 10.3091 79.3356 10.2809 78.1416 10.2386L76.8338 10.2104C75.9099 11.5791 75.5829 11.8755 75.057 12.1295C74.5311 12.3835 74.1046 12.4682 73.465 12.4682C72.8253 12.4682 72.3704 12.3694 71.9014 12.1436C71.546 11.9743 71.0911 11.6356 70.9205 11.4098C70.7358 11.184 70.4515 10.6055 70.2809 10.1398C70.0392 9.46246 69.9966 9.06734 70.0392 8.16422C70.0819 7.31754 70.1956 6.85187 70.4657 6.32975C70.6647 5.93464 71.0058 5.46897 71.2333 5.27141C71.4607 5.07385 72.0009 4.79163 72.4273 4.65051C72.939 4.48118 73.4223 4.41062 73.8488 4.46706C74.2041 4.49529 74.7443 4.66462 75.057 4.81985C75.3697 4.97507 75.7677 5.25729 75.9241 5.44074C76.0947 5.61007 76.3363 5.97697 76.4642 6.21686C76.649 6.61198 76.777 6.68253 77.2318 6.71075C77.5161 6.72486 78.0278 6.75308 78.369 6.78131C78.767 6.80953 79.0371 6.75309 79.1792 6.61198C79.3356 6.45675 79.364 6.30153 79.2645 6.00519C79.2077 5.79352 79.0087 5.34196 78.8239 4.98918C78.6391 4.6364 78.1131 3.95906 77.6298 3.47928C77.0897 2.94305 76.45 2.46326 75.9099 2.22337Z" fill="white"/>
<path d="M41.7664 1.91292C41.5674 1.78592 40.5866 1.74359 37.8148 1.7577C35.7821 1.7577 34.0195 1.80003 33.9058 1.84236C33.7352 1.89881 33.7067 2.83016 33.7352 8.39C33.7636 14.0063 33.792 14.8812 33.9768 14.9376C34.0905 14.98 35.8816 15.0082 37.9427 15.0082C41.0841 15.0082 41.738 14.9659 41.9228 14.7965C42.0791 14.6413 42.1502 14.3167 42.1502 13.6676C42.1502 13.1596 42.1218 12.6516 42.0791 12.5387C42.0223 12.3553 41.5816 12.327 39.3073 12.327H36.6065V9.6459L41.5106 9.57534C41.5674 7.69855 41.5248 7.26109 41.3968 7.13409C41.2689 6.99298 40.6293 6.95065 38.9093 6.95065L36.6065 6.96476V4.42474L41.937 4.35418C42.0081 2.26571 41.9796 2.06814 41.7664 1.91292Z" fill="white"/>
<path d="M83.799 2.02582C83.6995 1.87059 83.3867 1.81415 82.5197 1.81415C81.8942 1.81415 81.2972 1.87059 81.2119 1.95526C81.084 2.05404 81.0556 3.77562 81.0698 8.37589C81.084 13.2302 81.1408 14.6977 81.2688 14.8388C81.3825 14.9517 81.8374 15.0082 82.477 15.0082C83.1877 15.0082 83.5573 14.9517 83.7137 14.7965C83.9127 14.6272 83.9411 14.1756 83.9411 12.1154V9.6459H88.9162C88.9162 14.4578 88.9589 14.8812 89.1294 14.9376C89.2432 14.98 89.7833 15.0082 90.3235 15.0082C91.0058 15.0082 91.3896 14.9376 91.5317 14.7965C91.7307 14.6131 91.7591 13.8369 91.7591 8.37589C91.7591 2.64671 91.7449 2.15281 91.5175 1.94115C91.3185 1.77181 91.0342 1.72947 90.2666 1.7577C89.7265 1.77181 89.1863 1.87059 89.0868 1.94115C88.9447 2.05404 88.902 2.70316 88.9162 4.53762V6.96476H83.9411C83.9411 3.29583 83.8843 2.13871 83.799 2.02582Z" fill="white"/>
<path d="M101.752 1.80003C101.61 1.7577 99.8472 1.74359 97.8288 1.7577C94.8721 1.78592 94.1188 1.82825 93.9482 1.98347C93.7634 2.16692 93.735 3.05594 93.735 8.39C93.7492 13.6958 93.7776 14.6131 93.9624 14.7965C94.1472 14.98 94.7726 15.0082 97.843 15.0082C100.572 15.0082 101.567 14.9658 101.752 14.8388C101.965 14.6836 101.994 14.4861 101.965 13.5265L101.923 12.3976L96.7343 12.327V9.6459L101.638 9.57534V7.03532L96.7343 6.96476V4.56584C100.487 4.56584 101.667 4.53763 101.78 4.49529C101.951 4.43885 101.994 4.15662 101.994 3.15472C101.994 2.06815 101.965 1.87059 101.752 1.80003Z" fill="white"/>
<path fill-rule="evenodd" clip-rule="evenodd" d="M46.8268 1.78593C48.1203 1.82826 49.6271 1.95526 50.1815 2.06815C50.7216 2.19515 51.4892 2.42093 51.8872 2.59027C52.271 2.7596 52.8254 3.07005 53.0955 3.28172C53.3655 3.49338 53.8204 3.98728 54.1047 4.36829C54.389 4.74929 54.7728 5.44075 54.9434 5.90642C55.2276 6.61198 55.2845 7.02121 55.2845 8.44644C55.2845 9.91402 55.2419 10.2527 54.9434 10.9865C54.7586 11.4521 54.3321 12.1436 54.0194 12.5387C53.6925 12.9197 53.1807 13.4136 52.868 13.6253C52.5695 13.8369 51.9583 14.1474 51.5318 14.3167C51.1054 14.4861 50.1104 14.6977 49.3286 14.8106C48.5468 14.9094 47.1253 15.0082 46.1587 15.0082C44.8083 15.0082 44.3819 14.9659 44.2113 14.7965C44.0265 14.6131 43.9981 13.6958 43.9839 8.39C43.9839 2.61849 43.9981 2.16693 44.2255 1.94115C44.453 1.72948 44.7515 1.71537 46.8268 1.78593ZM50.352 12.1013C49.954 12.2141 49.0159 12.3694 46.9832 12.5387L47.0258 4.38239L48.3904 4.48117C49.1438 4.52351 49.9825 4.6364 50.2525 4.70696C50.5226 4.79162 50.9775 5.0033 51.2476 5.17263C51.5318 5.35608 51.9014 5.79352 52.1004 6.20275C52.4132 6.80953 52.4558 7.06354 52.4558 8.44644C52.4558 9.71646 52.3989 10.0975 52.1715 10.549C52.0151 10.8595 51.7166 11.2969 51.4892 11.5086C51.276 11.7344 50.7785 11.9884 50.352 12.1013Z" fill="white"/>
<path fill-rule="evenodd" clip-rule="evenodd" d="M106.756 1.78593C108.077 1.82826 109.627 1.96937 110.167 2.08226C110.721 2.20926 111.546 2.49148 112.015 2.71726C112.541 2.97127 113.138 3.40872 113.564 3.87439C113.948 4.29773 114.431 4.98918 114.63 5.41252C114.986 6.14631 115 6.31564 115 8.44644C115 10.6055 114.986 10.7325 114.63 11.4098C114.417 11.7908 113.934 12.454 113.564 12.8774C113.124 13.3431 112.555 13.7805 112.015 14.0345C111.546 14.2603 110.778 14.5425 110.309 14.6695C109.755 14.8106 108.547 14.9235 106.898 14.9658C104.638 15.0364 104.311 15.0223 104.097 14.8106C103.856 14.599 103.842 14.1051 103.827 8.39C103.827 2.60438 103.842 2.16693 104.069 1.94115C104.296 1.72948 104.595 1.71537 106.756 1.78593ZM110.096 12.1859C109.826 12.2565 108.945 12.3553 106.684 12.4682L106.727 4.38239L108.163 4.46706C108.959 4.52351 109.854 4.65051 110.167 4.74929C110.48 4.86218 110.92 5.05974 111.148 5.21496C111.375 5.35607 111.716 5.7653 111.93 6.11808C112.271 6.69664 112.299 6.88009 112.299 8.37589C112.299 9.82935 112.257 10.0692 111.944 10.6901C111.745 11.0994 111.375 11.5368 111.091 11.7203C110.821 11.8896 110.366 12.1013 110.096 12.1859Z" fill="white"/>
</svg>
