<svg width="223" height="201" viewBox="0 0 223 201" fill="none" xmlns="http://www.w3.org/2000/svg">
<path fill-rule="evenodd" clip-rule="evenodd" d="M129.992 0.1016C130.574 0.198719 131.384 0.490075 131.838 0.716686C132.291 0.943296 132.971 1.42889 133.392 1.81736C134.072 2.43245 134.558 2.4972 138.25 2.52957C140.905 2.52957 143.107 2.75618 144.467 3.07991C145.633 3.37126 147.382 3.9216 148.354 4.31008C149.325 4.66618 150.88 5.34601 151.754 5.79923C152.661 6.25245 154.021 7.06178 154.831 7.61211C155.64 8.16245 157.227 9.39262 158.36 10.3962C159.494 11.3997 161.307 13.3745 162.376 14.7989C163.445 16.2233 164.87 18.5218 165.55 19.9138C166.262 21.2735 167.201 23.6691 168.594 28.0718L168.691 55.5888C168.788 75.3362 168.691 84.0769 168.432 86.5049C168.205 88.3825 167.622 91.4903 167.137 93.4651C166.651 95.4398 165.777 98.3534 165.194 99.9397C164.611 101.526 163.348 104.407 162.409 106.349C161.437 108.259 159.883 111.011 158.943 112.5C157.972 113.957 156.32 116.256 155.252 117.583C154.183 118.91 151.624 121.629 149.617 123.572C147.414 125.708 144.467 128.104 142.362 129.528C140.387 130.823 137.408 132.572 135.724 133.381C134.04 134.19 131.417 135.258 129.894 135.776C128.372 136.294 125.684 137.071 123.903 137.492C122.122 137.913 119.24 138.399 117.491 138.528C115.775 138.658 114.35 138.949 114.35 139.111C114.35 139.273 114.609 140.438 114.933 141.701C115.257 142.963 115.969 144.744 116.487 145.715C117.005 146.654 117.945 148.046 118.56 148.758C119.305 149.6 120.665 150.506 125.199 152.707H129.894C133.845 152.707 134.979 152.578 137.019 151.963C138.347 151.542 141.197 150.344 143.334 149.276C145.471 148.208 148.483 146.46 150.005 145.326C151.56 144.226 153.406 142.801 154.15 142.186C155.446 141.086 155.478 141.021 155.154 139.758C154.992 139.046 154.831 137.654 154.831 136.683C154.831 135.712 155.025 134.19 155.252 133.284C155.511 132.41 156.126 130.888 156.644 129.917C157.162 128.946 158.393 127.36 159.397 126.356C160.401 125.352 161.923 124.155 162.797 123.669C163.672 123.183 165.258 122.568 166.327 122.309C167.396 122.018 169.145 121.791 170.213 121.791C171.282 121.791 172.998 122.018 174.035 122.277C175.038 122.536 176.561 123.119 177.435 123.539C178.277 123.96 179.734 125.029 180.706 125.87C181.677 126.744 182.843 128.039 183.329 128.752C183.815 129.464 184.527 130.921 184.948 131.989C185.563 133.543 185.693 134.546 185.693 137.007C185.661 139.176 185.499 140.6 185.045 141.863C184.689 142.834 183.847 144.517 183.135 145.553C182.455 146.621 181.289 147.981 180.576 148.596C179.864 149.211 178.277 150.182 177.014 150.797C175.751 151.38 173.743 152.028 172.48 152.222C170.828 152.481 169.598 152.481 167.946 152.222C166.716 152.028 164.805 151.445 163.736 150.895C162.668 150.377 161.307 149.503 160.757 148.985C160.174 148.434 159.623 148.013 159.526 148.013C159.429 148.013 158.587 148.629 157.68 149.405C156.741 150.182 155.187 151.348 154.28 151.995C153.341 152.643 151.139 153.97 149.422 154.941C147.674 155.88 144.953 157.207 143.334 157.822C141.715 158.47 139.189 159.312 137.667 159.7C135.4 160.315 134.04 160.445 130.056 160.445C125.846 160.477 124.875 160.38 122.77 159.7C121.442 159.312 119.337 158.438 118.074 157.79C116.843 157.11 114.803 155.653 113.605 154.488C112.374 153.323 110.82 151.477 110.107 150.377C109.427 149.244 108.423 147.075 107.905 145.521C107.355 143.934 106.837 141.765 106.416 138.625H104.958C104.149 138.625 101.752 138.269 99.6149 137.816C97.4775 137.395 94.2067 136.521 92.3284 135.841C90.4501 135.194 87.6326 134.028 86.0134 133.219C84.4265 132.41 82.0948 131.082 80.8318 130.273C79.6012 129.496 77.3991 127.91 75.9742 126.809C74.5492 125.708 72.1528 123.507 70.6307 121.986C69.1086 120.432 66.8741 117.842 65.6435 116.191C64.4129 114.54 62.6641 111.918 61.6926 110.299C60.7534 108.68 59.3285 105.929 58.5513 104.148C57.774 102.368 56.8025 99.972 56.4463 98.8066C56.0577 97.6412 55.41 95.2456 54.9566 93.4651C54.5032 91.6845 53.9203 88.6415 53.6288 86.6667C53.1754 83.5913 53.1107 79.3829 53.305 27.7481L54.6004 24.0252C55.3128 21.9857 56.6082 19.0721 57.515 17.583C58.5513 15.8025 60.2029 13.763 62.2107 11.7235C64.0566 9.87822 66.2588 8.00059 67.7161 7.09415C69.0439 6.28483 71.5051 5.08703 73.1567 4.47194C74.7759 3.82448 77.561 3.07991 79.3098 2.78855C81.2852 2.46482 83.3578 2.33533 84.8799 2.46482C87.0497 2.62669 87.3735 2.56194 87.9564 1.94686C88.3127 1.59075 89.187 1.00804 89.8995 0.684313C90.612 0.360584 91.9397 0.0692275 92.8141 0.0692275C93.7209 0.0692275 95.0163 0.360584 95.7287 0.684313C96.4412 0.975669 97.4451 1.75262 97.9633 2.3677C98.4814 2.98279 99.0967 3.95398 99.3558 4.53669C99.5825 5.08703 99.7768 6.12296 99.7768 6.80279C99.7768 7.45025 99.4853 8.5833 99.1615 9.29551C98.87 10.0077 98.0928 11.0113 97.4775 11.5292C96.8622 12.0472 95.8907 12.6623 95.3401 12.9213C94.7572 13.1479 93.6885 13.3421 92.976 13.3421C92.2636 13.3421 91.1301 13.1155 90.4824 12.8242C89.8024 12.5652 88.6689 11.853 87.9564 11.3026C86.7258 10.3314 86.5315 10.2991 83.7465 10.2991C81.7062 10.2991 80.087 10.4933 78.3382 11.0113C76.9457 11.3997 74.8407 12.2091 73.6425 12.8242C72.4118 13.4069 70.5335 14.6047 69.4649 15.4787C68.3638 16.3528 66.8741 17.8096 66.1292 18.6836C65.3844 19.5901 64.2833 21.2411 63.7004 22.4065C63.0851 23.572 62.2431 25.6115 61.0773 29.3667V85.6956L61.8221 89.0947C62.2431 90.9724 63.0851 94.0154 63.7328 95.893C64.3481 97.7707 65.5463 100.749 66.3883 102.529C67.2303 104.31 68.72 106.997 69.6916 108.518C70.6955 110.04 72.1852 112.144 73.0595 113.213C73.9015 114.281 75.3588 115.932 76.2656 116.871C77.1724 117.842 79.0831 119.525 80.508 120.626C81.9329 121.727 84.1998 123.313 85.5276 124.155C86.8554 124.964 89.1223 126.162 90.5472 126.809C91.9721 127.457 94.239 128.363 95.5668 128.784C96.8946 129.237 99.2263 129.917 100.748 130.305C103.145 130.888 104.44 130.985 110.788 131.018C116.779 131.018 118.527 130.921 120.665 130.403C122.09 130.079 124.421 129.464 125.846 129.011C127.271 128.557 130.056 127.457 131.999 126.518C133.943 125.579 136.954 123.896 138.638 122.763C140.29 121.597 142.913 119.493 144.435 118.068C145.925 116.644 147.9 114.54 148.839 113.374C149.779 112.209 151.333 110.04 152.337 108.518C153.308 106.997 154.863 104.245 155.737 102.368C156.644 100.49 157.875 97.5117 158.49 95.7312C159.105 93.9507 159.947 90.9076 160.368 88.9329C161.146 85.4042 161.146 85.21 161.243 58.9879C161.34 33.5752 161.307 32.4745 160.692 29.3667C160.239 27.1006 159.591 25.2554 158.587 23.2159C157.778 21.6296 156.579 19.6225 155.899 18.8131C155.219 18.0038 154.021 16.7736 153.211 16.0938C152.402 15.4464 150.815 14.3133 149.649 13.6335C148.483 12.9536 146.67 12.0796 145.601 11.7235C144.532 11.335 142.654 10.817 141.391 10.558C139.836 10.2343 138.412 10.1372 136.857 10.2991C135.108 10.4609 134.363 10.6875 133.619 11.335C133.1 11.7882 132.064 12.4033 131.352 12.727C130.639 13.0508 129.635 13.3421 129.085 13.3421C128.567 13.3421 127.563 13.1803 126.915 13.0184C126.235 12.8242 125.166 12.2091 124.486 11.6587C123.839 11.076 123.061 10.0077 122.737 9.29551C122.414 8.5833 122.122 7.35313 122.122 6.54381C122.122 5.54025 122.414 4.60143 123.029 3.46838C123.579 2.52957 124.486 1.52601 125.231 1.04041C125.911 0.619567 127.045 0.166346 127.725 0.0692275C128.405 -0.0278912 129.409 -0.0278912 129.992 0.1016ZM166.651 130.921C166.133 131.212 165.356 131.795 164.967 132.215C164.578 132.604 164.028 133.51 163.769 134.158C163.477 134.838 163.251 136.23 163.251 137.233C163.251 138.528 163.51 139.564 163.995 140.568C164.546 141.636 165.226 142.316 166.521 143.093C167.979 143.967 168.594 144.129 170.213 144.129C171.703 144.129 172.577 143.934 173.905 143.255C175.071 142.672 175.945 141.927 176.431 141.118C176.852 140.471 177.305 139.305 177.467 138.528C177.662 137.686 177.662 136.618 177.5 135.712C177.305 134.902 176.755 133.64 176.204 132.863C175.621 132.054 174.682 131.244 173.873 130.856C173.095 130.532 171.832 130.176 171.023 130.079C170.213 129.982 169.145 130.046 168.594 130.176C168.076 130.305 167.201 130.662 166.651 130.921ZM4.01568 169.38C6.05591 169.38 7.18937 169.509 7.64275 169.833C7.99898 170.092 10.104 173.944 16.3866 186.505L20.4347 178.606C22.6692 174.268 24.7418 170.415 25.0656 170.027C25.5514 169.477 26.0048 169.38 28.5956 169.38C30.2472 169.38 31.834 169.541 32.0931 169.703C32.5141 169.962 32.5789 171.969 32.5789 184.595C32.5789 197.22 32.5141 199.227 32.0931 199.486C31.834 199.648 30.5386 199.81 29.2432 199.81C27.9803 199.81 26.6849 199.745 26.4258 199.648C26.0048 199.519 25.94 198.127 25.94 180.224L18.5887 194.792H14.1197L6.99506 180.645L6.83314 189.904C6.7036 197.673 6.60645 199.227 6.18545 199.486C5.92637 199.648 4.63099 199.81 3.33561 199.81C1.684 199.81 0.874383 199.681 0.518153 199.324C0.0971537 198.904 0.0323846 196.799 0 184.627C0 171.84 0.0323846 170.351 0.518153 169.897C0.906767 169.509 1.74877 169.38 4.01568 169.38ZM101.396 169.509C103.89 169.574 104.764 169.736 106.059 170.383C106.934 170.804 108.262 171.808 108.974 172.617C109.719 173.426 110.626 174.753 110.982 175.53C111.37 176.34 111.63 177.181 111.565 177.376C111.5 177.602 110.431 178.023 109.168 178.282C107.938 178.541 106.642 178.768 106.351 178.768C105.995 178.768 105.541 178.314 105.217 177.635C104.894 177.02 104.149 176.21 103.598 175.854C102.983 175.498 101.947 175.207 101.234 175.207C100.522 175.207 99.3882 175.369 98.7405 175.53C98.0604 175.725 97.2832 176.178 96.9917 176.566C96.6679 177.063 96.5599 177.689 96.6679 178.444C96.7974 179.221 97.1213 179.739 97.7366 180.095C98.2547 180.419 100.263 181.099 102.206 181.649C104.181 182.232 106.351 182.976 107.063 183.3C107.776 183.656 108.974 184.562 109.686 185.307C110.431 186.084 111.209 187.217 111.403 187.832C111.597 188.447 111.759 189.904 111.759 191.069C111.759 192.235 111.597 193.756 111.403 194.469C111.176 195.278 110.464 196.314 109.525 197.253C108.585 198.224 107.355 199.001 106.189 199.454C104.667 200.004 103.598 200.134 100.586 200.134C97.3156 200.134 96.6355 200.037 95.081 199.324C94.1095 198.871 92.6846 197.868 91.9397 197.123C91.1625 196.346 90.191 194.986 89.77 194.112C89.349 193.238 89.0899 192.267 89.2194 191.943C89.349 191.555 90.1262 191.231 91.9397 190.875C93.2999 190.584 94.6277 190.454 94.8543 190.551C95.0487 190.649 95.502 191.296 95.8583 191.943C96.2469 192.753 96.8946 193.4 97.7042 193.789C98.6757 194.242 99.4853 194.371 101.331 194.274C103.436 194.145 103.792 194.048 104.505 193.238C105.023 192.656 105.282 191.976 105.282 191.134C105.282 190.454 105.023 189.677 104.699 189.354C104.408 189.03 102.691 188.318 100.91 187.767C99.1291 187.249 96.7974 186.505 95.7287 186.116C94.66 185.728 93.2999 184.983 92.6846 184.433C92.1017 183.915 91.2597 182.782 90.8387 181.908C90.2557 180.775 90.0614 179.836 90.0614 178.282C90.0614 177.117 90.2557 175.692 90.4824 175.11C90.7091 174.559 91.4216 173.491 92.0693 172.779C92.717 172.066 93.9476 171.128 94.7896 170.707C95.664 170.254 96.8298 169.8 97.348 169.671C97.8985 169.509 99.712 169.444 101.396 169.509ZM128.923 169.477C131.481 169.541 132.323 169.736 133.943 170.48C135.173 171.031 136.63 172.131 137.861 173.361C138.962 174.462 140.16 176.016 140.581 176.825C141.002 177.635 141.456 178.671 141.585 179.156C141.812 179.836 141.747 180.192 141.391 180.548C141.067 180.872 140.452 181.001 139.545 180.937C138.768 180.872 137.602 180.807 136.954 180.775C135.918 180.71 135.627 180.548 135.206 179.642C134.914 179.091 134.363 178.25 133.975 177.861C133.619 177.44 132.712 176.793 131.999 176.437C131.287 176.081 130.056 175.692 129.247 175.628C128.275 175.498 127.174 175.66 126.008 176.048C125.037 176.372 123.806 177.02 123.288 177.473C122.77 177.926 121.993 178.994 121.539 179.901C120.924 181.099 120.665 182.167 120.568 184.109C120.471 186.181 120.568 187.088 121.118 188.641C121.507 189.71 122.155 191.037 122.576 191.555C122.964 192.073 124 192.85 124.81 193.238C125.879 193.756 126.915 193.983 128.372 193.983C129.83 193.983 130.801 193.789 131.999 193.206C133.198 192.623 133.943 191.943 136.048 188.803L139.027 188.868C141.747 188.965 142.039 189.03 142.136 189.613C142.201 189.969 141.78 191.199 141.197 192.364C140.614 193.53 139.415 195.213 138.509 196.087C137.602 196.994 135.853 198.224 134.59 198.839C132.388 199.94 132.226 199.972 128.437 199.972C124.713 199.972 124.454 199.94 122.446 198.936C121.183 198.353 119.564 197.155 118.43 196.022C117.2 194.792 116.163 193.335 115.354 191.717C114.188 189.289 114.188 189.289 114.188 184.919C114.188 180.645 114.22 180.516 115.257 178.282C115.872 177.02 116.908 175.369 117.556 174.559C118.236 173.75 119.564 172.552 120.535 171.905C121.507 171.225 123.094 170.383 124.065 170.027C125.49 169.509 126.462 169.38 128.923 169.477ZM204.217 169.477C207.229 169.574 210.759 169.898 211.989 170.156C213.252 170.448 215.131 171.095 216.199 171.613C217.397 172.196 218.758 173.2 219.729 174.268C220.604 175.239 221.705 176.825 222.158 177.796C222.968 179.48 223 179.868 223 184.757C223 189.71 222.968 190.001 222.158 191.555C221.672 192.429 220.571 193.951 219.729 194.922C218.725 195.99 217.43 196.994 216.199 197.576C215.131 198.094 213.382 198.742 212.313 199.033C211.05 199.357 208.297 199.616 204.541 199.713C199.392 199.875 198.647 199.842 198.161 199.357C197.611 198.871 197.578 197.738 197.546 184.627C197.546 171.354 197.578 170.351 198.096 169.833C198.614 169.347 199.295 169.315 204.217 169.477ZM204.055 193.983C209.204 193.724 211.212 193.497 211.827 193.335C212.443 193.141 213.479 192.656 214.094 192.267C214.742 191.846 215.584 190.843 216.037 189.904C216.75 188.48 216.847 187.929 216.847 184.595C216.847 181.163 216.782 180.742 216.005 179.415C215.519 178.606 214.742 177.667 214.224 177.343C213.706 176.987 212.702 176.534 211.989 176.275C211.277 176.048 209.237 175.757 207.423 175.628L204.152 175.433L204.055 193.983ZM92.6522 23.7014C93.2675 23.7014 94.3038 23.9604 94.8867 24.2842C95.502 24.5755 96.4736 25.3848 97.9957 27.3272L98.0928 32.3774C98.1576 35.1938 98.1252 37.9455 98.028 38.5282C97.9309 39.0786 97.3803 40.0821 96.7974 40.7296C96.2145 41.3771 95.3401 42.1216 94.8543 42.3482C94.3686 42.6072 93.4294 42.8015 92.8141 42.8015C92.1988 42.8015 91.292 42.6396 90.8063 42.4454C90.3205 42.2835 89.5757 41.7979 89.1547 41.4094C88.7337 41.021 88.1507 40.2764 87.8917 39.726C87.5354 39.0462 87.3411 37.6542 87.3088 35.032C87.2764 32.9925 87.3411 30.3703 87.4383 29.2048C87.6002 27.6833 87.8917 26.7769 88.4746 25.9676C88.928 25.3525 89.8024 24.5755 90.4177 24.2842C91.033 23.9604 92.0369 23.7014 92.6522 23.7014ZM128.858 23.7338C129.441 23.7015 130.315 23.8633 130.801 24.0576C131.287 24.2518 132.097 24.7698 132.615 25.2554C133.133 25.7409 133.748 26.615 133.975 27.1977C134.299 27.9099 134.428 29.7228 134.428 33.2515C134.428 36.0355 134.266 38.6577 134.104 39.1757C133.91 39.6613 133.36 40.4706 132.874 40.9562C132.388 41.4742 131.611 42.0893 131.125 42.3482C130.639 42.6072 129.7 42.8015 129.085 42.8015C128.47 42.8015 127.563 42.6396 127.077 42.4454C126.591 42.2835 125.782 41.7332 125.263 41.2476C124.778 40.762 124.162 39.6613 123.903 38.7549C123.579 37.6758 123.418 35.6794 123.418 32.7659C123.45 29.2696 123.547 28.1365 124.033 27.1006C124.357 26.3884 125.102 25.4496 125.717 24.964C126.332 24.5108 127.045 24.0576 127.304 23.9604C127.563 23.8309 128.275 23.7338 128.858 23.7338ZM80.6051 34.7406C82.0624 34.7082 83.3255 34.8701 83.4226 35.032C83.5198 35.2262 83.6493 36.2621 83.7141 37.3952C83.7788 38.4959 83.9731 40.0174 84.1998 40.7943C84.3941 41.5389 85.0418 42.7691 85.6247 43.546C86.2077 44.2906 87.3411 45.3265 88.1507 45.8121C89.1871 46.4596 90.1586 46.7833 91.6807 46.9128C93.2351 47.0423 94.2067 46.9452 95.4049 46.5567C96.3117 46.2654 97.5423 45.5855 98.1576 45.0999C98.7729 44.582 99.712 43.3842 100.263 42.4454C101.007 41.0533 101.234 40.1469 101.396 38.0103C101.493 36.5211 101.72 35.1615 101.882 34.9996C102.076 34.8377 106.286 34.773 120.341 34.8701L120.438 36.0032C120.471 36.6182 120.665 38.075 120.859 39.2404C121.053 40.4059 121.507 41.9598 121.895 42.7367C122.284 43.5137 123.158 44.582 123.839 45.0999C124.486 45.6179 125.652 46.2654 126.429 46.5243C127.174 46.8157 128.599 47.0099 129.571 47.0099C130.736 47.0099 131.902 46.751 132.971 46.2654C133.878 45.8445 135.076 44.9705 135.659 44.323C136.242 43.6755 136.922 42.5749 137.213 41.9274C137.505 41.2476 137.829 39.4671 137.958 38.0103C138.055 36.5211 138.314 35.1615 138.476 34.9996C138.671 34.8054 140.257 34.7406 142.039 34.8054C144.467 34.9025 145.666 35.0967 146.832 35.6471C147.674 36.0032 149.098 37.0067 150.005 37.8808C150.912 38.7225 152.045 40.1469 153.373 42.6396V65.7862C153.373 87.1847 153.341 89.1271 152.758 91.6845C152.434 93.2061 151.819 95.5369 151.365 96.8642C150.912 98.1915 149.908 100.619 149.163 102.206C148.386 103.824 146.993 106.285 146.054 107.709C145.083 109.166 142.881 111.788 140.938 113.698C139.027 115.576 136.404 117.809 135.076 118.716C133.748 119.59 131.417 120.917 129.894 121.694C128.372 122.439 125.749 123.507 124.065 124.057C122.381 124.608 119.596 125.288 117.912 125.579C115.613 125.935 113.475 126.032 109.492 125.903C105.185 125.741 103.533 125.579 101.007 124.899C99.2586 124.446 96.7003 123.604 95.3401 123.054C93.9476 122.504 91.7131 121.468 90.3853 120.723C89.0575 119.978 86.8554 118.554 85.5276 117.551C84.1998 116.547 81.9329 114.507 80.508 113.018C79.0507 111.529 77.1076 109.134 76.1361 107.709C75.1969 106.285 73.7072 103.663 72.8976 101.882C72.0556 100.102 71.0841 97.7059 70.6955 96.5405C70.3392 95.3751 69.7563 93.2061 69.4325 91.6845C68.9143 89.1595 68.8496 86.9581 68.8496 41.9921L69.562 40.6972C69.9506 39.985 70.6631 38.9491 71.1812 38.3988C71.667 37.8808 72.7357 37.0067 73.5453 36.4564C74.3225 35.9384 75.6503 35.3557 76.4599 35.1291C77.2695 34.9348 79.1154 34.7406 80.6051 34.7406ZM76.6218 55.6859C76.6218 86.0517 76.6866 87.9293 77.2372 90.3896C77.561 91.9112 78.2087 94.1773 78.6621 95.4074C79.0831 96.67 79.8927 98.5476 80.4432 99.6159C80.9614 100.684 82.1596 102.627 83.0664 103.954C83.9731 105.281 85.981 107.515 87.5031 108.972C89.0251 110.428 91.4216 112.274 92.8465 113.115C94.2714 113.957 96.7327 115.123 98.3195 115.77C99.9387 116.385 102.918 117.194 104.958 117.583C108.035 118.198 109.395 118.295 112.569 118.133C114.9 118.036 117.588 117.68 119.208 117.259C120.73 116.903 123.061 116.126 124.389 115.608C125.717 115.058 127.984 113.957 129.376 113.115C130.866 112.241 133.262 110.364 135.011 108.68C136.695 107.094 138.8 104.666 139.675 103.339C140.581 102.012 141.747 99.972 142.298 98.8066C142.816 97.6412 143.625 95.6988 144.046 94.4362C144.467 93.2061 145.018 90.94 145.309 89.4184C145.698 87.1524 145.795 83.9798 145.698 71.1925L145.601 55.6859C144.014 54.4557 143.237 54.4233 111.079 54.4557C79.1478 54.4557 78.1439 54.4881 77.3991 55.0708L76.6218 55.6859ZM47.1519 169.412C53.4669 169.38 55.7014 169.477 56.1548 169.768C56.6406 170.124 56.7053 170.577 56.5434 175.369L44.3992 175.53V181.358L49.6455 181.325C53.564 181.325 55.0214 181.422 55.3128 181.746C55.6043 182.037 55.7014 183.041 55.5719 187.346L44.3992 187.508V193.659H50.5523C55.7338 193.659 56.7377 193.724 56.8673 194.145C56.9644 194.404 57.0292 195.569 57.0292 196.735C57.0292 198.224 56.8673 198.968 56.511 199.324C56.09 199.713 54.6004 199.81 47.4434 199.81C42.7476 199.81 38.6672 199.745 38.4081 199.648C37.9871 199.519 37.9223 197.512 37.8575 184.627C37.7928 171.872 37.8575 169.736 38.2462 169.606C38.5052 169.509 42.5209 169.412 47.1519 169.412ZM67.6837 169.477C70.6307 169.574 74.0635 169.865 75.3265 170.124C76.5571 170.415 78.3058 170.933 79.2126 171.322C80.087 171.71 81.35 172.423 81.9653 172.908C82.5806 173.394 83.6169 174.527 84.2646 175.401C84.9123 176.275 85.7867 177.861 86.1753 178.93C86.823 180.548 86.9525 181.487 86.9525 184.757C86.9525 188.123 86.8554 188.9 86.1753 190.584C85.7543 191.652 84.7828 193.238 84.0703 194.145C83.3255 195.019 82.1596 196.152 81.4471 196.638C80.7671 197.123 79.3745 197.835 78.403 198.224C77.4315 198.612 75.1645 199.098 73.3834 199.357C71.6022 199.583 68.3638 199.81 66.1616 199.81C63.0851 199.81 62.1136 199.713 61.725 199.324C61.304 198.904 61.2392 196.799 61.2068 184.627C61.2068 171.387 61.2392 170.351 61.7573 169.833C62.2755 169.347 62.9556 169.315 67.6837 169.477ZM68.0399 194.145C72.6709 193.756 74.8083 193.4 75.7151 193.141C76.6866 192.882 77.8201 192.3 78.3058 191.782C78.824 191.296 79.5041 190.292 79.8603 189.58C80.3785 188.544 80.508 187.67 80.508 184.757C80.508 181.584 80.4108 181.001 79.6984 179.609C79.245 178.671 78.403 177.667 77.7553 177.246C77.14 176.858 76.1037 176.372 75.4884 176.178C74.8731 176.016 72.9624 175.757 71.246 175.66L68.1371 175.433L68.0399 194.145ZM149.001 169.541C150.977 169.541 151.689 169.671 151.916 170.027C152.11 170.286 152.24 172.941 152.24 181.358H163.574V175.789C163.542 171.581 163.639 170.092 163.963 169.833C164.19 169.671 165.42 169.444 166.651 169.412C168.4 169.347 169.047 169.444 169.501 169.833C170.019 170.318 170.051 171.451 170.051 184.595C170.051 197.123 169.987 198.904 169.533 199.324C169.209 199.648 168.335 199.81 166.78 199.81C165.55 199.81 164.319 199.745 164.06 199.648C163.672 199.519 163.574 198.548 163.574 187.508H152.24V193.174C152.24 197.9 152.175 198.936 151.722 199.324C151.365 199.681 150.523 199.81 148.904 199.81C147.447 199.81 146.411 199.681 146.151 199.422C145.86 199.098 145.73 195.731 145.698 184.595C145.666 174.041 145.73 170.092 146.022 169.865C146.216 169.671 147.576 169.541 149.001 169.541ZM183.879 169.412C188.478 169.38 192.494 169.412 192.818 169.509C193.303 169.671 193.368 170.124 193.368 172.617C193.368 174.915 193.271 175.563 192.882 175.692C192.623 175.789 189.935 175.854 181.386 175.854V181.358L192.559 181.519V187.346L181.386 187.508V193.659L193.206 193.821L193.303 196.411C193.368 198.612 193.303 199.065 192.818 199.422C192.397 199.713 190.13 199.81 183.912 199.81C176.917 199.81 175.492 199.745 175.071 199.324C174.65 198.904 174.585 196.799 174.553 184.627C174.553 172.39 174.617 170.351 175.038 169.93C175.427 169.574 177.143 169.477 183.879 169.412ZM111.662 61.6749C116.39 61.7396 116.584 61.772 117.426 62.5489C117.88 63.0022 118.398 63.8762 118.56 64.4913C118.754 65.1064 118.884 67.761 118.884 75.1744L124.486 75.2715C129.668 75.3362 130.121 75.401 131.125 76.0808C131.816 76.5556 132.226 77.1491 132.356 77.8613C132.453 78.4117 132.55 81.1957 132.647 89.1595L130.542 91.0371H118.722V96.4758C118.722 99.4541 118.625 102.271 118.495 102.788C118.366 103.274 117.847 103.922 117.362 104.245C116.617 104.731 115.678 104.796 105.315 104.796L103.501 103.015L103.339 91.0371H97.5099C91.9397 91.0371 91.6483 91.0047 90.8387 90.3249C90.1586 89.7422 89.9319 89.1595 89.7376 87.6379C89.6081 86.5696 89.5757 83.9474 89.7052 81.8108C89.8671 78.8973 90.0614 77.6671 90.4824 77.0196C90.7739 76.534 91.5511 75.919 92.1664 75.66C93.0084 75.3039 94.5953 75.1744 103.339 75.1744L103.436 69.5739C103.501 64.7179 103.598 63.8762 104.116 63.0993C104.44 62.6461 105.185 62.0957 105.736 61.9339C106.286 61.7396 108.942 61.6425 111.662 61.6749Z" fill="white"/>
</svg>
